<svg width="355" height="74" viewBox="0 0 355 74" fill="none" xmlns="http://www.w3.org/2000/svg">
<path d="M202.154 1.11676L194.364 31H185.552L180.784 11.3333L175.846 31H167.035L159.457 1.11676H167.247L171.547 22.8694L176.868 1.11676H184.871L189.979 22.8694L194.321 1.11676H202.154ZM224.407 25.7215H213.254L211.466 31H203.846L214.659 1.11676H223.087L233.9 31H226.195L224.407 25.7215ZM222.534 20.1024L218.83 9.16225L215.169 20.1024H222.534ZM244.47 1.11676V31H237.19V1.11676H244.47ZM271.242 1.11676V6.94868H263.324V31H256.045V6.94868H248.127V1.11676H271.242ZM282.175 1.11676V31H274.895V1.11676H282.175ZM314.183 31H306.904L294.729 12.5677V31H287.45V1.11676H294.729L306.904 19.6342V1.11676H314.183V31ZM339.297 10.567C338.757 9.57375 337.977 8.8217 336.955 8.31088C335.962 7.77167 334.784 7.50207 333.422 7.50207C331.067 7.50207 329.179 8.2825 327.76 9.84335C326.341 11.3758 325.632 13.4333 325.632 16.0158C325.632 18.7686 326.37 20.9254 327.846 22.4863C329.35 24.0187 331.407 24.785 334.018 24.785C335.806 24.785 337.31 24.3309 338.53 23.4228C339.779 22.5146 340.687 21.2092 341.255 19.5064H332.017V14.1428H347.853V20.9112C347.314 22.7275 346.391 24.416 345.086 25.9769C343.809 27.5377 342.177 28.8006 340.19 29.7655C338.204 30.7304 335.962 31.2128 333.465 31.2128C330.513 31.2128 327.874 30.5743 325.547 29.2973C323.248 27.9918 321.446 26.1897 320.141 23.891C318.864 21.5923 318.225 18.9672 318.225 16.0158C318.225 13.0644 318.864 10.4393 320.141 8.1406C321.446 5.81351 323.248 4.01144 325.547 2.73437C327.846 1.42893 330.471 0.776214 333.422 0.776214C336.998 0.776214 340.006 1.64178 342.447 3.3729C344.916 5.10403 346.547 7.50207 347.342 10.567H339.297ZM168.312 66.3809H177.847V72H161.032V42.1168H168.312V66.3809ZM188.598 42.1168V72H181.319V42.1168H188.598ZM220.607 72H213.327L201.153 53.5677V72H193.873V42.1168H201.153L213.327 60.6342V42.1168H220.607V72ZM233.162 47.9487V53.9934H242.911V59.6125H233.162V66.1681H244.188V72H225.883V42.1168H244.188V47.9487H233.162ZM267.218 54.036V60.0808H248.488V54.036H267.218ZM280.758 42.1168V59.9956C280.758 61.7835 281.198 63.1599 282.078 64.1248C282.958 65.0897 284.249 65.5721 285.952 65.5721C287.654 65.5721 288.96 65.0897 289.868 64.1248C290.776 63.1599 291.23 61.7835 291.23 59.9956V42.1168H298.509V59.9531C298.509 62.6207 297.942 64.8768 296.807 66.7215C295.671 68.5661 294.139 69.9567 292.209 70.8932C290.308 71.8297 288.179 72.298 285.824 72.298C283.468 72.298 281.354 71.8439 279.481 70.9358C277.637 69.9993 276.175 68.6087 275.097 66.764C274.018 64.891 273.479 62.6207 273.479 59.9531V42.1168H280.758ZM326.395 51.7373C326.395 53.4684 325.998 55.0577 325.203 56.505C324.409 57.9239 323.188 59.0733 321.542 59.9531C319.896 60.8328 317.853 61.2727 315.412 61.2727H310.9V72H303.621V42.1168H315.412C317.796 42.1168 319.811 42.5283 321.457 43.3513C323.103 44.1743 324.338 45.3094 325.161 46.7568C325.984 48.2041 326.395 49.8643 326.395 51.7373ZM314.859 55.4833C316.25 55.4833 317.285 55.157 317.967 54.5043C318.648 53.8515 318.988 52.9292 318.988 51.7373C318.988 50.5454 318.648 49.623 317.967 48.9703C317.285 48.3176 316.25 47.9912 314.859 47.9912H310.9V55.4833H314.859ZM340.997 72.298C338.812 72.298 336.854 71.9432 335.123 71.2338C333.392 70.5243 332.001 69.4743 330.951 68.0837C329.929 66.6931 329.39 65.0187 329.333 63.0606H337.081C337.194 64.1674 337.578 65.0187 338.23 65.6147C338.883 66.1823 339.734 66.4661 340.784 66.4661C341.863 66.4661 342.714 66.2248 343.339 65.7424C343.963 65.2316 344.275 64.5363 344.275 63.6565C344.275 62.9187 344.02 62.3085 343.509 61.8261C343.026 61.3436 342.416 60.9463 341.678 60.6342C340.969 60.322 339.947 59.9672 338.613 59.5699C336.684 58.974 335.109 58.378 333.888 57.782C332.668 57.1861 331.618 56.3063 330.738 55.1428C329.858 53.9792 329.419 52.461 329.419 50.5879C329.419 47.8068 330.426 45.6358 332.441 44.0749C334.456 42.4857 337.081 41.6911 340.316 41.6911C343.608 41.6911 346.262 42.4857 348.277 44.0749C350.291 45.6358 351.37 47.821 351.512 50.6305H343.637C343.58 49.6656 343.225 48.9136 342.572 48.3744C341.92 47.8068 341.082 47.523 340.061 47.523C339.181 47.523 338.472 47.7642 337.932 48.2467C337.393 48.7007 337.124 49.3676 337.124 50.2474C337.124 51.2123 337.578 51.9643 338.486 52.5035C339.394 53.0427 340.813 53.6245 342.743 54.2488C344.672 54.9016 346.233 55.5259 347.425 56.1219C348.645 56.7178 349.695 57.5834 350.575 58.7186C351.455 59.8537 351.895 61.3153 351.895 63.1031C351.895 64.8059 351.455 66.3526 350.575 67.7431C349.724 69.1337 348.475 70.2405 346.829 71.0635C345.183 71.8865 343.239 72.298 340.997 72.298Z" fill="#FFC60B"/>
<path d="M71.0142 73H53.542L24.3196 28.7576V73H6.84739V1.27217H24.3196L53.542 45.7189V1.27217H71.0142V73ZM117.602 73.7152C110.858 73.7152 104.659 72.1485 99.0057 69.0151C93.4201 65.8817 88.9584 61.5222 85.6206 55.9365C82.351 50.2828 80.7161 43.9478 80.7161 36.9317C80.7161 29.9156 82.351 23.6147 85.6206 18.0291C88.9584 12.4435 93.4201 8.08393 99.0057 4.95052C104.659 1.81711 110.858 0.250408 117.602 0.250408C124.345 0.250408 130.51 1.81711 136.096 4.95052C141.749 8.08393 146.177 12.4435 149.379 18.0291C152.648 23.6147 154.283 29.9156 154.283 36.9317C154.283 43.9478 152.648 50.2828 149.379 55.9365C146.109 61.5222 141.681 65.8817 136.096 69.0151C130.51 72.1485 124.345 73.7152 117.602 73.7152ZM117.602 57.7757C123.324 57.7757 127.888 55.8684 131.293 52.0538C134.767 48.2393 136.504 43.1986 136.504 36.9317C136.504 30.5968 134.767 25.5561 131.293 21.8096C127.888 17.995 123.324 16.0877 117.602 16.0877C111.812 16.0877 107.18 17.961 103.706 21.7074C100.3 25.4539 98.597 30.5287 98.597 36.9317C98.597 43.2667 100.3 48.3414 103.706 52.156C107.18 55.9025 111.812 57.7757 117.602 57.7757Z" fill="#FFC60B"/>
</svg>
