<svg width="185" height="51" viewBox="0 0 185 51" fill="none" xmlns="http://www.w3.org/2000/svg">
<path d="M8.46931 24.9852V5.49966H0.649811V0.582746H22.0668V5.49966H14.2473V24.9852H8.46931Z" fill="white"/>
<path d="M37.0834 25.5679C34.4641 25.5679 32.1529 25.0095 30.1499 23.8925C28.1469 22.7756 26.6061 21.2581 25.5275 19.3399C24.4746 17.3974 23.9482 15.2121 23.9482 12.784C23.9482 10.2345 24.5132 7.98846 25.6431 6.04598C26.7987 4.1035 28.3651 2.61021 30.3425 1.56613C32.3198 0.522043 34.5668 0 37.0834 0C39.7028 0 42.014 0.558464 44.017 1.67539C46.02 2.79232 47.548 4.32203 48.6008 6.26451C49.6794 8.18271 50.2187 10.3559 50.2187 12.784C50.2187 15.3335 49.6409 17.5795 48.4853 19.522C47.3554 21.4644 45.8017 22.9577 43.8244 24.0018C41.847 25.0459 39.6001 25.5679 37.0834 25.5679ZM37.0834 20.5053C39.2149 20.5053 40.9354 19.8012 42.2451 18.3929C43.5547 16.9603 44.2096 15.0907 44.2096 12.784C44.2096 10.4773 43.5547 8.61977 42.2451 7.21147C40.9354 5.77889 39.2149 5.0626 37.0834 5.0626C34.952 5.0626 33.2315 5.77889 31.9218 7.21147C30.6121 8.61977 29.9573 10.4773 29.9573 12.784C29.9573 15.0907 30.6121 16.9603 31.9218 18.3929C33.2315 19.8012 34.952 20.5053 37.0834 20.5053Z" fill="white"/>
<path d="M54.8937 0.582746H63.4065C66.899 0.582746 69.5954 1.27476 71.4957 2.65877C73.396 4.01851 74.3461 5.97314 74.3461 8.52265C74.3461 10.0766 73.9481 11.4364 73.152 12.6019C72.3816 13.7674 71.2774 14.6658 69.8393 15.2971L76.2721 24.9852H69.6467L64.2925 16.3533H60.5561V24.9852H54.8937V0.582746ZM63.9843 11.7277C67.0402 11.7277 68.5682 10.6715 68.5682 8.55907C68.5682 7.51498 68.1701 6.72585 67.3741 6.19167C66.6037 5.65748 65.4609 5.39039 63.9458 5.39039H60.5561V11.7277H63.9843Z" fill="white"/>
<path d="M91.327 25.5679C88.7077 25.5679 86.3965 25.0095 84.3935 23.8925C82.3904 22.7756 80.8496 21.2581 79.7711 19.3399C78.7182 17.3974 78.1918 15.2121 78.1918 12.784C78.1918 10.2345 78.7567 7.98846 79.8867 6.04598C81.0422 4.1035 82.6087 2.61021 84.5861 1.56613C86.5634 0.522043 88.8104 0 91.327 0C93.9463 0 96.2575 0.558464 98.2606 1.67539C100.264 2.79232 101.792 4.32203 102.844 6.26451C103.923 8.18271 104.462 10.3559 104.462 12.784C104.462 15.3335 103.884 17.5795 102.729 19.522C101.599 21.4644 100.045 22.9577 98.0679 24.0018C96.0906 25.0459 93.8436 25.5679 91.327 25.5679ZM91.327 20.5053C93.4584 20.5053 95.179 19.8012 96.4886 18.3929C97.7983 16.9603 98.4531 15.0907 98.4531 12.784C98.4531 10.4773 97.7983 8.61977 96.4886 7.21147C95.179 5.77889 93.4584 5.0626 91.327 5.0626C89.1956 5.0626 87.475 5.77889 86.1654 7.21147C84.8557 8.61977 84.2009 10.4773 84.2009 12.784C84.2009 15.0907 84.8557 16.9603 86.1654 18.3929C87.475 19.8012 89.1956 20.5053 91.327 20.5053Z" fill="white"/>
<path d="M109.137 24.9852V0.582746H114.684L125.816 16.244V0.582746H131.363V24.9852H125.816L114.684 9.36034V24.9852H109.137Z" fill="white"/>
<path d="M143.251 24.9852V5.49966H135.431V0.582746H156.848V5.49966H149.029V24.9852H143.251Z" fill="white"/>
<path d="M171.865 25.5679C169.245 25.5679 166.934 25.0095 164.931 23.8925C162.928 22.7756 161.387 21.2581 160.309 19.3399C159.256 17.3974 158.73 15.2121 158.73 12.784C158.73 10.2345 159.295 7.98846 160.424 6.04598C161.58 4.1035 163.146 2.61021 165.124 1.56613C167.101 0.522043 169.348 0 171.865 0C174.484 0 176.795 0.558464 178.798 1.67539C180.801 2.79232 182.329 4.32203 183.382 6.26451C184.461 8.18271 185 10.3559 185 12.784C185 15.3335 184.422 17.5795 183.267 19.522C182.137 21.4644 180.583 22.9577 178.606 24.0018C176.628 25.0459 174.381 25.5679 171.865 25.5679ZM171.865 20.5053C173.996 20.5053 175.717 19.8012 177.026 18.3929C178.336 16.9603 178.991 15.0907 178.991 12.784C178.991 10.4773 178.336 8.61977 177.026 7.21147C175.717 5.77889 173.996 5.0626 171.865 5.0626C169.733 5.0626 168.013 5.77889 166.703 7.21147C165.393 8.61977 164.739 10.4773 164.739 12.784C164.739 15.0907 165.393 16.9603 166.703 18.3929C168.013 19.8012 169.733 20.5053 171.865 20.5053Z" fill="white"/>
<path d="M6.05485 51L0 30.4878H5.37489L8.80706 44.7545L12.1745 32.7533H16.8694L20.4958 44.8157L23.8956 30.4878H29.141L23.0861 51H18.2293L14.4734 39.0601L10.8793 51H6.05485Z" fill="white"/>
<path d="M41.85 30.4878L49.9447 51H44.7317L43.2422 46.6833H35.1152L33.6581 51H28.4775L36.5722 30.4878H41.85ZM36.3779 43.0094H41.9795L39.1625 34.8352L36.3779 43.0094Z" fill="white"/>
<path d="M55.4997 51V34.6209H48.9268V30.4878H66.9294V34.6209H60.3565V51H55.4997Z" fill="white"/>
<path d="M70.3654 51V30.4878H85.6158V34.529H75.1575V38.509H84.2559V42.5196H75.1575V46.9588H85.9396V51H70.3654Z" fill="white"/>
<path d="M89.7801 30.4878H96.9358C99.8715 30.4878 102.138 31.0695 103.735 32.2329C105.333 33.3758 106.131 35.0189 106.131 37.1619C106.131 38.4682 105.797 39.6111 105.128 40.5908C104.48 41.5705 103.552 42.3257 102.343 42.8563L107.75 51H102.181L97.6805 43.7442H94.5398V51H89.7801V30.4878ZM97.4215 39.8561C99.9902 39.8561 101.275 38.9682 101.275 37.1925C101.275 36.3149 100.94 35.6516 100.271 35.2025C99.6232 34.7535 98.6627 34.529 97.3891 34.529H94.5398V39.8561H97.4215Z" fill="white"/>
<path d="M123.23 51V34.6209H116.657V30.4878H134.659V34.6209H128.087V51H123.23Z" fill="white"/>
<path d="M147.018 30.4878L155.113 51H149.9L148.41 46.6833H140.283L138.826 51H133.646L141.74 30.4878H147.018ZM141.546 43.0094H147.148L144.331 34.8352L141.546 43.0094Z" fill="white"/>
<path d="M170.987 51L166.486 43.9585L162.342 51H156.676L163.637 40.5602L156.999 30.4878H162.892L166.972 37.1007L170.89 30.4878H176.556L169.789 40.499L176.88 51H170.987Z" fill="white"/>
<path d="M184.659 51H179.802V30.4878H184.659V51Z" fill="white"/>
</svg>
