<svg width="629" height="212" viewBox="0 0 629 212" fill="none" xmlns="http://www.w3.org/2000/svg">
<g clip-path="url(#clip0_1_2)">
<g filter="url(#filter0_dddddd_1_2)">
<path d="M0 90.2888V2.10587H14.7958L44.4901 58.7008V2.10587H59.2856V90.2888H44.4901L14.7958 33.8253V90.2888H0ZM106.716 92.3946C99.7292 92.3946 93.5635 90.3766 88.2208 86.3404C82.878 82.3041 78.7676 76.82 75.8915 69.8883C73.0822 62.8687 71.6785 54.9717 71.6785 46.1973C71.6785 36.9842 73.1858 28.8679 76.1993 21.8483C79.2817 14.8288 83.4598 9.43249 88.7348 5.65953C94.0088 1.88651 100.003 0 106.716 0C113.702 0 119.868 2.01812 125.211 6.05436C130.553 10.0906 134.629 15.6185 137.437 22.638C140.314 29.5697 141.753 37.423 141.753 46.1973C141.753 55.4105 140.212 63.5268 137.129 70.5464C134.115 77.5659 129.972 82.9621 124.696 86.7352C119.422 90.5082 113.428 92.3946 106.716 92.3946ZM106.716 74.1C112.401 74.1 116.991 71.5554 120.483 66.4662C123.977 61.2893 125.725 54.533 125.725 46.1973C125.725 37.8616 123.977 31.1492 120.483 26.06C116.991 20.8831 112.401 18.2946 106.716 18.2946C101.03 18.2946 96.4406 20.8831 92.9468 26.06C89.4541 31.1492 87.7067 37.8616 87.7067 46.1973C87.7067 54.533 89.4541 61.2893 92.9468 66.4662C96.4406 71.5554 101.03 74.1 106.716 74.1ZM192.367 90.2888L173.153 2.10587H190.209L201.101 63.439L211.786 11.8455H226.685L238.193 63.7023L248.981 2.10587H265.627L246.413 90.2888H231L219.081 38.9584L207.677 90.2888H192.367ZM305.957 2.10587L331.643 90.2888H315.101L310.375 71.7309H284.585L279.961 90.2888H263.522L289.208 2.10587H305.957ZM288.591 55.9369H306.367L297.428 20.7954L288.591 55.9369ZM354.864 90.2888H339.452V2.10587H354.864V90.2888ZM386.598 90.2888V19.8741H365.74V2.10587H422.868V19.8741H402.01V90.2888H386.598ZM449.184 90.2888H433.772V2.10587H449.184V90.2888ZM464.375 90.2888V2.10587H479.171L508.866 58.7008V2.10587H523.662V90.2888H508.866L479.171 33.8253V90.2888H464.375ZM584.962 57.9112H571.81V41.0642H591.127C594.278 41.0642 596.402 41.7223 597.498 43.0385C598.593 44.3547 599.141 46.9871 599.141 50.9355V83.3132C592.155 89.3674 583.49 92.3946 573.146 92.3946C565.543 92.3946 558.933 90.4643 553.315 86.6035C547.767 82.6551 543.486 77.2148 540.472 70.2831C537.527 63.3514 536.054 55.3666 536.054 46.329C536.054 36.9403 537.595 28.7362 540.677 21.7166C543.76 14.6971 548.007 9.34483 553.419 5.65953C558.898 1.88651 565.2 0 572.324 0C577.393 0 582.119 1.09681 586.503 3.29042C590.955 5.48406 594.587 8.51114 597.395 12.3719L589.175 25.9285C586.983 23.3839 584.483 21.4535 581.675 20.1373C578.865 18.7333 575.92 18.0315 572.838 18.0315C566.331 18.0315 561.193 20.5322 557.426 25.5335C553.658 30.535 551.774 37.3352 551.774 45.9342C551.774 54.9717 553.693 62.0352 557.528 67.1243C561.432 72.1257 566.81 74.6265 573.66 74.6265C578.386 74.6265 582.154 73.8806 584.962 72.3889V57.9112ZM613.207 111.347L607.042 104.898L609.816 100.95C612.83 96.738 614.645 93.0088 615.262 89.7623C613.823 89.3237 612.59 88.2706 611.563 86.6035C610.535 84.8487 610.022 83.006 610.022 81.0756C610.022 78.0923 610.844 75.6355 612.487 73.7051C614.131 71.687 616.186 70.6779 618.652 70.6779C621.255 70.6779 623.379 71.7309 625.023 73.8367C626.667 75.9425 627.489 78.6627 627.489 81.997C627.489 85.5945 626.598 89.4113 624.818 93.4476C623.105 97.4838 620.433 101.871 616.803 106.609L613.207 111.347ZM0 209.894V121.711H14.7958L44.4901 178.307V121.711H59.2856V209.894H44.4901L14.7958 153.431V209.894H0ZM106.716 212C99.7292 212 93.5635 209.982 88.2208 205.946C82.878 201.91 78.7676 196.426 75.8915 189.494C73.0822 182.475 71.6785 174.578 71.6785 165.803C71.6785 156.59 73.1858 148.474 76.1993 141.454C79.2817 134.434 83.4598 129.038 88.7348 125.265C94.0088 121.493 100.003 119.606 106.716 119.606C113.702 119.606 119.868 121.624 125.211 125.661C130.553 129.696 134.629 135.224 137.437 142.244C140.314 149.176 141.753 157.029 141.753 165.803C141.753 175.016 140.212 183.133 137.129 190.152C134.115 197.172 129.972 202.568 124.696 206.34C119.422 210.114 113.428 212 106.716 212ZM106.716 193.706C112.401 193.706 116.991 191.161 120.483 186.072C123.977 180.895 125.725 174.139 125.725 165.803C125.725 157.468 123.977 150.755 120.483 145.666C116.991 140.489 112.401 137.9 106.716 137.9C101.03 137.9 96.4406 140.489 92.9468 145.666C89.4541 150.755 87.7067 157.468 87.7067 165.803C87.7067 174.139 89.4541 180.895 92.9468 186.072C96.4406 191.161 101.03 193.706 106.716 193.706ZM178.907 209.894V121.711H194.319V191.6H226.274V209.894H178.907ZM252.316 209.894H236.903V121.711H252.316V209.894ZM267.508 209.894V121.711H282.304L311.998 178.307V121.711H326.793V209.894H311.998L282.304 153.431V209.894H267.508ZM341.96 209.894V121.711H390.355V139.085H357.167V156.195H386.039V173.437H357.167V192.521H391.382V209.894H341.96ZM400.59 166.46H429.564V183.835H400.59V166.46ZM471.288 193.706C476.493 193.706 480.227 191.775 482.488 187.915C484.748 183.966 485.878 177.473 485.878 168.435V121.711H501.29V172.384C501.29 185.282 498.721 195.109 493.585 201.866C488.515 208.622 481.083 212 471.288 212C461.492 212 454.026 208.622 448.888 201.866C443.819 195.109 441.285 185.282 441.285 172.384V121.711H456.697V168.435C456.697 177.473 457.828 183.966 460.089 187.915C462.349 191.775 466.082 193.706 471.288 193.706ZM515.75 209.894V121.711H538.868C548.253 121.711 555.41 124.255 560.343 129.345C565.343 134.434 567.843 141.717 567.843 151.193C567.843 160.758 565.343 168.084 560.343 173.173C555.41 178.175 548.286 180.675 538.971 180.675H530.853V209.894H515.75ZM540.307 163.302C544.143 163.302 547.123 162.249 549.246 160.144C551.37 158.038 552.431 155.055 552.431 151.193C552.431 147.333 551.37 144.349 549.246 142.244C547.123 140.138 544.143 139.085 540.307 139.085H530.853V163.302H540.307ZM620.883 143.559C614.992 139.172 608.794 136.978 602.285 136.978C599.067 136.978 596.566 137.768 594.785 139.348C593.004 140.84 592.114 143.034 592.114 145.929C592.114 150.667 594.888 153.694 600.436 155.01L608.554 156.984C615.54 158.74 620.678 161.81 623.966 166.198C627.322 170.497 629 176.288 629 183.571C629 192.609 626.603 199.628 621.808 204.629C617.081 209.543 610.403 212 601.772 212C591.84 212 583.106 208.666 575.572 201.998L580.503 186.335C584.271 188.967 588.038 190.985 591.805 192.39C595.573 193.794 599.067 194.496 602.285 194.496C609.683 194.496 613.382 191.512 613.382 185.545C613.382 182.737 612.732 180.588 611.431 179.097C610.197 177.605 608.108 176.507 605.162 175.805L596.43 173.7C589.922 172.033 584.99 168.962 581.634 164.486C578.345 160.012 576.701 154.221 576.701 147.113C576.701 141.498 577.797 136.627 579.99 132.504C582.25 128.292 585.298 125.09 589.134 122.896C593.038 120.703 597.49 119.606 602.492 119.606C611.533 119.606 619.513 122.72 626.432 128.95L620.883 143.559Z" fill="#FFFF00"/>
</g>
</g>
<defs>
<filter id="filter0_dddddd_1_2" x="-47" y="-8" width="723" height="437" filterUnits="userSpaceOnUse" color-interpolation-filters="sRGB">
<feFlood flood-opacity="0" result="BackgroundImageFix"/>
<feColorMatrix in="SourceAlpha" type="matrix" values="0 0 0 0 0 0 0 0 0 0 0 0 0 0 0 0 0 0 127 0" result="hardAlpha"/>
<feOffset/>
<feColorMatrix type="matrix" values="0 0 0 0 0 0 0 0 0 0 0 0 0 0 0 0 0 0 0.5 0"/>
<feBlend mode="normal" in2="BackgroundImageFix" result="effect1_dropShadow_1_2"/>
<feColorMatrix in="SourceAlpha" type="matrix" values="0 0 0 0 0 0 0 0 0 0 0 0 0 0 0 0 0 0 127 0" result="hardAlpha"/>
<feOffset dy="7"/>
<feGaussianBlur stdDeviation="7.5"/>
<feColorMatrix type="matrix" values="0 0 0 0 0 0 0 0 0 0 0 0 0 0 0 0 0 0 0.49 0"/>
<feBlend mode="normal" in2="effect1_dropShadow_1_2" result="effect2_dropShadow_1_2"/>
<feColorMatrix in="SourceAlpha" type="matrix" values="0 0 0 0 0 0 0 0 0 0 0 0 0 0 0 0 0 0 127 0" result="hardAlpha"/>
<feOffset dy="27"/>
<feGaussianBlur stdDeviation="13.5"/>
<feColorMatrix type="matrix" values="0 0 0 0 0 0 0 0 0 0 0 0 0 0 0 0 0 0 0.43 0"/>
<feBlend mode="normal" in2="effect2_dropShadow_1_2" result="effect3_dropShadow_1_2"/>
<feColorMatrix in="SourceAlpha" type="matrix" values="0 0 0 0 0 0 0 0 0 0 0 0 0 0 0 0 0 0 127 0" result="hardAlpha"/>
<feOffset dy="61"/>
<feGaussianBlur stdDeviation="18.5"/>
<feColorMatrix type="matrix" values="0 0 0 0 0 0 0 0 0 0 0 0 0 0 0 0 0 0 0.25 0"/>
<feBlend mode="normal" in2="effect3_dropShadow_1_2" result="effect4_dropShadow_1_2"/>
<feColorMatrix in="SourceAlpha" type="matrix" values="0 0 0 0 0 0 0 0 0 0 0 0 0 0 0 0 0 0 127 0" result="hardAlpha"/>
<feOffset dy="109"/>
<feGaussianBlur stdDeviation="21.5"/>
<feColorMatrix type="matrix" values="0 0 0 0 0 0 0 0 0 0 0 0 0 0 0 0 0 0 0.07 0"/>
<feBlend mode="normal" in2="effect4_dropShadow_1_2" result="effect5_dropShadow_1_2"/>
<feColorMatrix in="SourceAlpha" type="matrix" values="0 0 0 0 0 0 0 0 0 0 0 0 0 0 0 0 0 0 127 0" result="hardAlpha"/>
<feOffset dy="170"/>
<feGaussianBlur stdDeviation="23.5"/>
<feColorMatrix type="matrix" values="0 0 0 0 0 0 0 0 0 0 0 0 0 0 0 0 0 0 0.01 0"/>
<feBlend mode="normal" in2="effect5_dropShadow_1_2" result="effect6_dropShadow_1_2"/>
<feBlend mode="normal" in="SourceGraphic" in2="effect6_dropShadow_1_2" result="shape"/>
</filter>
<clipPath id="clip0_1_2">
<rect width="629" height="212" fill="white"/>
</clipPath>
</defs>
</svg>
